<svg id="Camada_1" data-name="Camada 1" xmlns="http://www.w3.org/2000/svg" viewBox="0 0 100 100"><defs><style>.cls-1{fill:#fff;}</style></defs><g id="icone-alerta"><path id="Caminho_419" data-name="Caminho 419" class="cls-1" d="M94.58,91.88H5.42a3.26,3.26,0,0,1-3.27-3.27A3.35,3.35,0,0,1,2.58,87L47.16,9.76a3.27,3.27,0,0,1,5.68,0L97.42,87a3.29,3.29,0,0,1-1.2,4.48,3.37,3.37,0,0,1-1.64.43ZM11.1,85.33H88.91L50,18Z"/><g id="Grupo_128" data-name="Grupo 128"><circle id="Elipse_58" data-name="Elipse 58" class="cls-1" cx="50" cy="73.08" r="3.27"/><path id="Caminho_420" data-name="Caminho 420" class="cls-1" d="M50,67.82a3.28,3.28,0,0,1-3.28-3.28h0V42.69a3.28,3.28,0,1,1,6.55,0V64.54A3.27,3.27,0,0,1,50,67.82Z"/></g></g></svg>