<svg id="Camada_1" data-name="Camada 1" xmlns="http://www.w3.org/2000/svg" viewBox="0 0 100 100"><defs><style>.cls-1{fill:#fff;}</style></defs><g id="icone-livro"><path id="Caminho_444" data-name="Caminho 444" class="cls-1" d="M89.78,92.7H20.05A12.76,12.76,0,0,1,7.3,80V20A12.74,12.74,0,0,1,20,7.3H89.78a2.92,2.92,0,0,1,2.92,2.92V89.78A2.92,2.92,0,0,1,89.78,92.7ZM20,13.14A6.88,6.88,0,0,0,13.15,20V80A6.89,6.89,0,0,0,20,86.85H86.85V13.14Z"/><path id="Caminho_445" data-name="Caminho 445" class="cls-1" d="M89.78,92.7H20.05a12.74,12.74,0,0,1,0-25.47H89.78a2.93,2.93,0,0,1,2.92,2.93V89.78A2.92,2.92,0,0,1,89.78,92.7ZM20,73.08a6.89,6.89,0,0,0,0,13.77H86.85V73.08Z"/><path id="Caminho_446" data-name="Caminho 446" class="cls-1" d="M21.88,72.12A2.93,2.93,0,0,1,19,69.2v-59a2.93,2.93,0,1,1,5.85,0v59A2.92,2.92,0,0,1,21.88,72.12Z"/><path id="Caminho_447" data-name="Caminho 447" class="cls-1" d="M78.08,33a2.93,2.93,0,0,1-2.93-2.92V11.48a2.93,2.93,0,1,1,5.85,0V30.12A2.92,2.92,0,0,1,78.08,33Z"/><path id="Caminho_448" data-name="Caminho 448" class="cls-1" d="M61.57,33a2.92,2.92,0,0,1-2.92-2.92V11.48a2.93,2.93,0,1,1,5.85,0V30.12A2.93,2.93,0,0,1,61.57,33Z"/><path id="Caminho_449" data-name="Caminho 449" class="cls-1" d="M78.06,33.13A2.92,2.92,0,0,1,76,32.27l-8.14-8.14a2.92,2.92,0,0,1,4.06-4.21L72,20l8.15,8.14a2.94,2.94,0,0,1-2.07,5Z"/><path id="Caminho_450" data-name="Caminho 450" class="cls-1" d="M61.57,33a2.92,2.92,0,0,1-2.06-5l8.14-8.14A2.93,2.93,0,0,1,71.79,24l-8.15,8.14A2.85,2.85,0,0,1,61.57,33Z"/></g></svg>