<svg id="Camada_1" data-name="Camada 1" xmlns="http://www.w3.org/2000/svg" viewBox="0 0 100 100"><defs><style>.cls-1{fill:#fff;}</style></defs><g id="icone-download"><g id="Grupo_137" data-name="Grupo 137"><path id="Caminho_439" data-name="Caminho 439" class="cls-1" d="M50.14,74.72a3.5,3.5,0,0,1-2.47-6L64.19,52.24a3.49,3.49,0,0,1,4.94,4.94L52.61,73.7A3.5,3.5,0,0,1,50.14,74.72Z"/><path id="Caminho_440" data-name="Caminho 440" class="cls-1" d="M50.11,74.76a3.5,3.5,0,0,1-2.48-1L31.12,57.22a3.49,3.49,0,0,1,4.94-4.94L46.61,62.83V14.56a3.5,3.5,0,0,1,7,0v56.7a3.5,3.5,0,0,1-3.49,3.5Z"/></g><path id="Caminho_441" data-name="Caminho 441" class="cls-1" d="M83.66,88.93H16.34a3.49,3.49,0,0,1-3.49-3.49h0V61.81a3.49,3.49,0,1,1,7,0h0V81.94H80.17V61.81a3.49,3.49,0,0,1,7,0h0V85.44a3.49,3.49,0,0,1-3.49,3.49Z"/></g></svg>