<svg id="Camada_1" data-name="Camada 1" xmlns="http://www.w3.org/2000/svg" viewBox="0 0 100 100"><g id="icone-estou-com-duvidas"><path id="Caminho_435" data-name="Caminho 435" d="M50,98.53A48.52,48.52,0,1,1,92.79,72.9l5.61,21a3.59,3.59,0,0,1-2.54,4.4,3.66,3.66,0,0,1-1.86,0l-20.9-5.6A48.46,48.46,0,0,1,50,98.53ZM50,8.69a41.33,41.33,0,1,0,20.8,77,3.64,3.64,0,0,1,2.74-.37l16.3,4.37L85.47,73.36a3.62,3.62,0,0,1,.36-2.73A41.31,41.31,0,0,0,50,8.69Z"/><g id="Grupo_135" data-name="Grupo 135"><path id="Caminho_436" data-name="Caminho 436" d="M50.08,54a3.6,3.6,0,0,1,0-7.19,8.41,8.41,0,0,0,0-16.81,3.6,3.6,0,0,1,0-7.19h0a15.6,15.6,0,1,1,0,31.19Z"/><path id="Caminho_437" data-name="Caminho 437" d="M50.08,66.33a3.6,3.6,0,0,1-3.59-3.6V50.39a3.6,3.6,0,0,1,7.19,0V62.73A3.6,3.6,0,0,1,50.08,66.33Z"/><path id="Caminho_438" data-name="Caminho 438" d="M62.08,42a3.6,3.6,0,0,1-3.59-3.6,8.41,8.41,0,1,0-16.81-.19v.19a3.6,3.6,0,1,1-7.19,0,15.6,15.6,0,0,1,31.19,0,3.6,3.6,0,0,1-3.6,3.6Z"/></g><circle id="Elipse_59" data-name="Elipse 59" cx="50.01" cy="74.08" r="3.59"/></g></svg>