<svg id="Camada_1" data-name="Camada 1" xmlns="http://www.w3.org/2000/svg" viewBox="0 0 100 100"><defs><style>.cls-1{fill:#fff;}</style></defs><g id="icone-home"><path id="Caminho_844" data-name="Caminho 844" class="cls-1" d="M82.65,96.1H17.33A8.83,8.83,0,0,1,8.5,87.26V40.77a3.07,3.07,0,0,1,6.14,0h0V87.26A2.7,2.7,0,0,0,17.33,90H82.65a2.7,2.7,0,0,0,2.69-2.7h0V40.77a3.08,3.08,0,0,1,6.15,0V87.26A8.85,8.85,0,0,1,82.65,96.1Z"/><path id="Caminho_845" data-name="Caminho 845" class="cls-1" d="M96.1,51.53a3.11,3.11,0,0,1-2.18-.9L55.7,12.4a8.08,8.08,0,0,0-11.42,0L6.06,50.63a3.08,3.08,0,0,1-4.35-4.35L39.94,8.05a14.23,14.23,0,0,1,20.1,0L98.27,46.28a3.08,3.08,0,0,1-2.17,5.25Z"/><path id="Caminho_846" data-name="Caminho 846" class="cls-1" d="M62.29,96.1H37.7A3.06,3.06,0,0,1,34.63,93V65.75a9.62,9.62,0,0,1,9.6-9.61H55.76a9.62,9.62,0,0,1,9.6,9.61V93a3.06,3.06,0,0,1-3.07,3.07ZM40.77,90H59.21V65.75a3.46,3.46,0,0,0-3.46-3.46H44.23a3.46,3.46,0,0,0-3.46,3.46Z"/></g></svg>