<svg id="Camada_1" data-name="Camada 1" xmlns="http://www.w3.org/2000/svg" viewBox="0 0 100 100"><g id="icone-atualizar"><path id="Caminho_422" data-name="Caminho 422" d="M49.83,96.43a43.82,43.82,0,0,1-10.39-1.25,3,3,0,0,1,1.41-5.8,37.22,37.22,0,1,0,18.68-72c-.35-.1-.71-.18-1.07-.27a3,3,0,1,1,1.41-5.79,43.15,43.15,0,0,1-10,85.17Z"/><path id="Caminho_423" data-name="Caminho 423" d="M49.88,96.51A43.32,43.32,0,0,1,8.22,42,3,3,0,0,1,14,43.51h0A37.53,37.53,0,0,0,17.8,72,37,37,0,0,0,68.27,85.6l.43-.25A37.57,37.57,0,0,0,86,62.39a3,3,0,0,1,5.78,1.51h0a43.48,43.48,0,0,1-20,26.58A42.76,42.76,0,0,1,49.88,96.51Z"/><path id="Caminho_424" data-name="Caminho 424" d="M65,35.13a3,3,0,0,1-2.79-1.93L55.18,14.6a3,3,0,0,1,1.73-3.85l18.6-7.06a3,3,0,1,1,2.12,5.58l-15.81,6,6,15.81a3,3,0,0,1-2.79,4Z"/></g></svg>