<svg id="Camada_1" data-name="Camada 1" xmlns="http://www.w3.org/2000/svg" viewBox="0 0 100 100"><defs><style>.cls-1{fill:#fff;}</style></defs><g id="User"><path id="Caminho_416" data-name="Caminho 416" class="cls-1" d="M50,47.69A21.86,21.86,0,1,1,71.86,25.83h0A21.89,21.89,0,0,1,50,47.69Zm0-36.38A14.53,14.53,0,1,0,64.53,25.84h0A14.55,14.55,0,0,0,50,11.3Z"/><g id="Grupo_127" data-name="Grupo 127"><path id="Caminho_417" data-name="Caminho 417" class="cls-1" d="M87.24,95.52a3.66,3.66,0,0,1-3.66-3.67h0a33.58,33.58,0,0,0-67.16,0,3.67,3.67,0,1,1-7.33,0,40.91,40.91,0,1,1,81.82-.44v.44a3.66,3.66,0,0,1-3.66,3.67Z"/><path id="Caminho_418" data-name="Caminho 418" class="cls-1" d="M87.24,96H12.75a3.67,3.67,0,0,1,0-7.33H87.24a3.67,3.67,0,1,1,0,7.33Z"/></g></g></svg>