<svg id="Camada_1" data-name="Camada 1" xmlns="http://www.w3.org/2000/svg" viewBox="0 0 100 100"><defs><style>.cls-1{fill:#fff;}</style></defs><g id="icone-play"><path id="Caminho_442" data-name="Caminho 442" class="cls-1" d="M40,70.42a3,3,0,0,1-3-3V32.63a3,3,0,0,1,3-3,2.94,2.94,0,0,1,1.5.41l30.1,17.37a3,3,0,0,1,1.11,4.16,3.11,3.11,0,0,1-1.11,1.11L41.55,70A3,3,0,0,1,40,70.42Zm3-32.53V62.12L64.06,50Z"/><path id="Caminho_443" data-name="Caminho 443" class="cls-1" d="M50.39,94.34a44.34,44.34,0,1,1,44-44.73V50A44.19,44.19,0,0,1,50.39,94.34Zm0-82.6A38.27,38.27,0,1,0,88.27,50.39V50A38.11,38.11,0,0,0,50.39,11.74Z"/></g></svg>